<?xml version="1.0" standalone="no"?>
<!DOCTYPE svg PUBLIC "-//W3C//DTD SVG 20010904//EN"
 "http://www.w3.org/TR/2001/REC-SVG-20010904/DTD/svg10.dtd">
<svg version="1.0" xmlns="http://www.w3.org/2000/svg"
 width="210.000000pt" height="50.000000pt" viewBox="0 0 210.000000 50.000000"
 preserveAspectRatio="xMidYMid meet">

<g transform="translate(0.000000,50.000000) scale(0.100000,-0.100000)"
fill="#000000" stroke="none">
<path d="M1010 436 c0 -15 18 -31 26 -23 7 7 -7 37 -17 37 -5 0 -9 -6 -9 -14z"/>
<path d="M1139 383 l-24 -68 -57 -3 -58 -3 0 41 0 40 68 2 c61 1 63 2 22 7
-47 6 -172 0 -132 -7 21 -3 22 -7 22 -105 0 -56 -5 -120 -10 -142 -11 -50 -6
-56 14 -16 10 18 16 55 16 94 l0 65 36 7 c20 3 41 2 46 -3 5 -5 8 -52 6 -105
-2 -75 0 -93 10 -85 8 7 12 42 12 109 0 118 10 126 57 40 l31 -59 -33 -51
c-45 -68 -23 -71 24 -3 l23 33 29 -41 c35 -48 61 -54 29 -7 -44 66 -44 71 -16
119 19 32 26 59 26 96 0 31 5 52 13 55 6 3 -18 6 -56 6 -67 1 -67 1 -61 26 3
14 2 25 -4 25 -5 0 -20 -30 -33 -67z m121 -40 c0 -33 -8 -61 -24 -87 l-23 -38
-22 31 c-14 19 -25 53 -28 86 l-6 55 52 0 51 0 0 -47z"/>
<path d="M1823 371 c-35 -44 -63 -82 -63 -85 0 -9 248 -7 253 2 3 4 -46 5
-109 4 -63 -2 -114 -1 -114 3 0 4 21 33 48 64 75 88 77 91 61 91 -8 0 -42 -36
-76 -79z"/>
<path d="M565 419 c-4 -5 10 -9 29 -9 l36 0 0 -65 0 -65 -40 0 c-51 0 -52 -18
-1 -22 l38 -3 -14 -55 c-7 -30 -23 -68 -34 -83 l-21 -29 22 12 c23 12 56 76
66 129 l7 31 73 0 74 0 0 -86 c0 -54 4 -83 10 -79 6 3 10 42 10 86 l0 79 34 0
c19 0 38 5 41 10 4 6 -10 10 -34 10 l-41 0 0 65 0 65 30 0 c17 0 30 4 30 9 0
13 -308 13 -315 0z m235 -74 l0 -65 -72 0 -73 0 3 65 4 65 69 0 69 0 0 -65z"/>
<path d="M1433 423 l77 -4 0 -94 0 -94 -82 -4 -83 -3 83 -2 82 -2 0 -60 c0
-33 4 -60 10 -60 6 0 10 27 10 60 l0 60 88 2 87 2 -85 5 -85 6 -3 92 -3 92 78
4 c43 1 4 3 -87 3 -91 0 -130 -2 -87 -3z"/>
<path d="M87 263 c-43 -115 -51 -152 -28 -127 5 5 14 26 21 47 10 31 16 37 40
37 16 0 32 5 35 10 4 6 -6 10 -23 10 l-30 0 20 53 c11 28 21 53 23 55 2 2 20
-47 40 -107 20 -61 41 -111 46 -111 13 0 13 -2 -32 135 -22 69 -45 125 -52
125 -7 0 -34 -57 -60 -127z"/>
<path d="M282 265 c2 -92 7 -130 16 -133 9 -3 12 12 12 52 0 56 0 56 31 56 32
0 69 15 81 34 14 20 8 83 -8 97 -9 7 -42 15 -75 17 l-60 4 3 -127z m114 94 c8
-6 14 -26 14 -45 0 -38 -29 -64 -72 -64 -28 0 -28 0 -28 66 l0 67 36 -6 c20
-3 42 -11 50 -18z"/>
<path d="M474 374 c3 -9 6 -67 6 -130 0 -69 4 -114 10 -114 6 0 10 50 10 130
0 113 -2 130 -16 130 -11 0 -14 -5 -10 -16z"/>
<path d="M1407 383 c-8 -14 7 -116 18 -120 6 -2 9 19 7 54 -4 56 -14 84 -25
66z"/>
<path d="M1620 351 c0 -22 -4 -51 -10 -65 -11 -31 4 -36 20 -7 13 25 13 111 0
111 -5 0 -10 -18 -10 -39z"/>
<path d="M2000 373 c0 -15 45 -87 57 -90 6 -2 -1 19 -15 46 -24 45 -42 64 -42
44z"/>
<path d="M1780 175 l0 -75 123 2 122 2 -112 3 -113 4 0 59 0 60 121 0 121 0
-4 -60 c-2 -37 1 -59 7 -57 6 2 10 33 10 68 l0 64 -137 3 -138 3 0 -76z"/>
</g>
</svg>
